# xmcd
#
# Track frame offsets:
#	150
#	47023
#	72492
#	94117
#	123786
#	138632
#	207973
#	230576
#
# Disc length: 3412 seconds
#
# Revision: 1
# Processed by: cddbd v1.5.2PL0 Copyright (c) Steve Scherf et al.
# Submitted via: audiograbber 1.83.01
#
DISCID=720d5208
DTITLE=Grateful Dead - 74-06-16 State Fairgrounds, Des Moines IA
DYEAR=1900
DGENRE=
TTITLE0=China Cat Sunflower
TTITLE1=I Know You Rider
TTITLE2=Around and Around
TTITLE3=US Blues
TTITLE4=The Race Is On
TTITLE5=Eyes Of The World
TTITLE6=Jam 1
TTITLE7=Big River
EXTD=
EXTT0=
EXTT1=
EXTT2=
EXTT3=
EXTT4=
EXTT5=
EXTT6=
EXTT7=
PLAYORDER=
